<?xml version="1.0" encoding="utf-8"?>
<!-- Generator: Adobe Illustrator 26.0.1, SVG Export Plug-In . SVG Version: 6.00 Build 0)  -->
<svg version="1.1" id="Layer_1" xmlns="http://www.w3.org/2000/svg" xmlns:xlink="http://www.w3.org/1999/xlink" x="0px" y="0px"
	 viewBox="0 0 291.8 291.8" style="enable-background:new 0 0 291.8 291.8;" xml:space="preserve">
<style type="text/css">
	.st0{fill:none;stroke:#231F20;stroke-width:3;stroke-miterlimit:10;}
</style>
<g>
	<g>
		<path class="st0" d="M0,54.7v210.5l0.1,0.1c0.5,14.7,12.5,26.5,27.3,26.5h27.4V54.7H0z"/>
	</g>
	<g>
		<path class="st0" d="M9.1,284.7c2.6,2.4,5.7,4.2,9.1,5.4V54.7H9.1V284.7z"/>
		<rect x="45.6" y="54.7" class="st0" width="9.1" height="237.1"/>
		<rect x="27.4" y="54.7" class="st0" width="9.1" height="237.1"/>
	</g>
	<path class="st0" d="M54.7,0v264.4c0,15.1-12.2,27.3-27.4,27.3h236.9l0,0c0.1,0,0.1,0,0.2,0c1.9,0,3.7-0.2,5.5-0.6
		c0.9-0.2,1.6-0.5,2.5-0.8c0.9-0.3,1.8-0.5,2.7-0.8c1.4-0.6,2.7-1.3,3.9-2.1c0.2-0.1,0.5-0.2,0.7-0.4c7.3-4.9,12.1-13.2,12.1-22.6v0
		V0H54.7z"/>
	<path class="st0" d="M118.5,30.4c0,18.2-15,33-33.4,33c-1,0-2-0.1-3-0.1v228.1h182.4V63.2c-1,0.1-2,0.2-3,0.2
		c-18.5,0-33.4-14.8-33.4-33c0-1,0.1-2,0.2-3H118.4C118.5,28.3,118.5,29.3,118.5,30.4z"/>
	<path class="st0" d="M246.1,237.1c0-40.2-32.6-72.8-72.8-72.8c-40.2,0-72.8,32.6-72.8,72.8c0,21.6,9.4,40.9,24.3,54.2h96.9
		C236.6,278,246.1,258.6,246.1,237.1z M201,266.5c-1,0.6-2.2,0.9-3.4,0.9c-3.6,0-6.5-2.8-6.5-6.3c0-2.6,1.4-4,2.7-5.2
		c5.1-5,9.2-11.3,9.2-19.5c0-10.8-3.6-16-11.2-16c-17.7,0-9.6,43.3-38.8,43.3c-10.8,0-20.1-6.6-21.8-21.8h-6.9
		c-3.2,0-5.7-2.5-5.7-5.5c0-3.1,2.5-5.6,5.7-5.6h7c1.2-9.5,5.1-17.3,10.9-21.4c1.1-0.7,2.4-1.2,3.9-1.2c3.5,0,6.4,2.8,6.4,6.4
		c0,1.7-1,3.3-2.7,5.1c-3.6,3.7-6.4,9.8-6.4,16.6c0,9.8,4.7,13.5,9.6,13.5c15.9,0,8.5-43.3,38.8-43.3c13.3,0,22.1,8.3,23.6,24.2h6.8
		c3.1,0,5.7,2.5,5.7,5.6c0,3-2.5,5.5-5.7,5.5h-6.8C213.9,253.5,207.6,262.5,201,266.5z"/>
</g>
</svg>
