<svg xmlns="http://www.w3.org/2000/svg" xmlns:xlink="http://www.w3.org/1999/xlink" viewBox="0 0 1205.78 1383.6"><defs><style>.cls-1{fill:none;}.cls-2{isolation:isolate;}.cls-3{fill:#e6e7e8;}.cls-4{fill:#3e3e3e;}.cls-5{fill:#fff;}.cls-12,.cls-26,.cls-6,.cls-8{mix-blend-mode:multiply;}.cls-14,.cls-30,.cls-6{opacity:0.5;}.cls-7{fill:#a7a9ac;}.cls-8{opacity:0.3;}.cls-9{fill:#232222;}.cls-10,.cls-12,.cls-29{opacity:0.4;}.cls-11{fill:#fefefe;}.cls-13{fill:#f7b6bc;}.cls-14{fill:#bcbec0;}.cls-15{fill:#fcfbfc;}.cls-16{fill:#fc9faa;}.cls-17{fill:#d6f2fc;}.cls-18{fill:#faa0ba;}.cls-19{fill:#ffafb7;}.cls-20{opacity:0.7;}.cls-21{fill:#72d0eb;}.cls-22{fill:#fdd5e2;}.cls-23,.cls-29{mix-blend-mode:screen;}.cls-23,.cls-26{opacity:0.6;}.cls-24{fill:#ffaa7b;}.cls-25{clip-path:url(#clip-path);}.cls-27{fill:#8a6760;}.cls-28{fill:#e33861;}.cls-31{fill:#f8a366;}</style><clipPath id="clip-path" transform="translate(-390.64 -375.33)"><polygon class="cls-1" points="1039.81 1213.01 992.68 1220.34 945.55 1213.01 945.55 895.55 1039.81 895.55 1039.81 1213.01"/></clipPath></defs><g class="cls-2"><g id="character"><path class="cls-3" d="M1596.42,1646c0,38.49-269.92,113-602.89,113s-602.89-74.46-602.89-113,269.92-69.71,602.89-69.71S1596.42,1607.48,1596.42,1646Z" transform="translate(-390.64 -375.33)"/><path class="cls-4" d="M1382,1382.16c0,204.69-173.92,229.37-388.46,229.37s-388.46-24.68-388.46-229.37S752.91,819.1,993.53,819.1C1252.24,819.1,1382,1177.47,1382,1382.16Z" transform="translate(-390.64 -375.33)"/><path class="cls-5" d="M1275.22,1412.4c0,156.33-126.12,175.19-281.69,175.19s-281.69-18.86-281.69-175.19S819.05,982.35,993.53,982.35C1181.13,982.35,1275.22,1256.07,1275.22,1412.4Z" transform="translate(-390.64 -375.33)"/><g class="cls-6"><path class="cls-7" d="M993.53,819.1c-240.62,0-388.46,358.37-388.46,563.06S779,1611.53,993.53,1611.53,1382,1586.85,1382,1382.16,1252.24,819.1,993.53,819.1Zm0,726.35c-196.62,0-356-22.62-356-210.21s135.5-516,356-516c237.1,0,356,328.45,356,516S1190.15,1545.45,993.53,1545.45Z" transform="translate(-390.64 -375.33)"/></g><path class="cls-4" d="M993.53,1619.17c-100,0-203-4.69-278.3-38.7-79.68-36-118.41-100.86-118.41-198.31,0-110.28,41.21-252.33,105-361.91C738.24,957.65,780,907.91,826,872.43c52.44-40.46,108.79-61,167.49-61,62.83,0,121.74,20.5,175.07,60.92,46.6,35.32,88.15,85.1,123.5,148,59.62,106,98.15,248,98.15,361.82,0,97.45-38.74,162.31-118.41,198.31C1196.54,1614.48,1093.58,1619.17,993.53,1619.17Zm0-792.44c-103.4,0-201.84,71.3-277.19,200.76-62.58,107.52-103,246.73-103,354.67,0,92.29,34.68,150.94,109.14,184.58,72.28,32.66,173,37.15,271.06,37.15s198.78-4.49,271.06-37.15c74.46-33.64,109.14-92.29,109.14-184.58C1373.73,1182.82,1246.68,826.73,993.53,826.73Z" transform="translate(-390.64 -375.33)"/><path class="cls-4" d="M868,496.1C894.21,580,817.57,678.67,763.5,695.57,705.05,713.83,590.26,675,564,591.08a159.22,159.22,0,1,1,304-95Z" transform="translate(-390.64 -375.33)"/><g class="cls-8"><path class="cls-9" d="M788.1,662.57C729.65,680.84,614.86,642,588.62,558.09A158.82,158.82,0,0,1,601.8,432.6,159.19,159.19,0,0,0,564,591.08c26.23,83.94,141,122.75,199.47,104.49,26.94-8.42,59.48-37.14,82.11-74.21C827.08,641.91,806.31,656.88,788.1,662.57Z" transform="translate(-390.64 -375.33)"/></g><g class="cls-10"><path class="cls-11" d="M868,496.1a159.26,159.26,0,0,0-256.86-72.34A159.29,159.29,0,0,1,848.78,510.5c20,63.93-19.73,136.4-63.69,174.77C835.49,653.67,890.86,569.3,868,496.1Z" transform="translate(-390.64 -375.33)"/></g><path class="cls-4" d="M729.36,709.31c-67.74,0-151.32-43.22-173.92-115.54C527.77,505.23,577.29,410.69,665.83,383A168.2,168.2,0,0,1,876.57,493.41c16.91,54.11-7.38,106.15-23.36,132.35-23.44,38.43-57.6,69.2-87,78.4A123.68,123.68,0,0,1,729.36,709.31Zm-13.31-316a150.52,150.52,0,0,0-44.86,6.88c-79.06,24.71-123.28,109.14-98.57,188.2,20.13,64.42,95.5,102.91,156.74,102.91A106,106,0,0,0,760.81,687c25.11-7.85,56.07-36.22,77-70.59,14.39-23.61,36.33-70.27,21.54-117.61A149.56,149.56,0,0,0,716.05,393.32Z" transform="translate(-390.64 -375.33)"/><path class="cls-5" d="M801.8,516.78c14.81,47.38-31.54,104-59,112.61-23.24,7.26-97.8-11.6-112.61-59A89.89,89.89,0,1,1,801.8,516.78Z" transform="translate(-390.64 -375.33)"/><g class="cls-12"><path class="cls-13" d="M801.8,516.78A89.88,89.88,0,0,0,649,483.65c.79-.27,1.57-.56,2.38-.81a89.89,89.89,0,0,1,112.61,59c9.66,30.95-6.75,65.83-26.94,88.71a32,32,0,0,0,5.75-1.14C770.26,620.81,816.61,564.16,801.8,516.78Z" transform="translate(-390.64 -375.33)"/></g><path class="cls-4" d="M726.82,640.5c-33.93,0-90.83-21.43-105.2-67.41a98.89,98.89,0,1,1,188.77-59c7.42,23.72,2.59,51.4-13.59,77.92-13.7,22.46-33.83,40.5-51.3,46A63.06,63.06,0,0,1,726.82,640.5ZM716,462.68a80.94,80.94,0,0,0-77.23,105c11.17,35.74,58.3,54.78,88,54.78a45.93,45.93,0,0,0,13.31-1.7c26.09-8.15,66.29-59.08,53.08-101.34A80.53,80.53,0,0,0,716,462.68Z" transform="translate(-390.64 -375.33)"/><path class="cls-4" d="M1119.08,496.1c-26.23,83.93,50.41,182.57,104.48,199.47C1282,713.83,1396.8,675,1423,591.08a159.23,159.23,0,1,0-304-95Z" transform="translate(-390.64 -375.33)"/><g class="cls-8"><path class="cls-9" d="M1199,662.57c58.45,18.27,173.24-20.55,199.47-104.48a158.81,158.81,0,0,0-13.17-125.49A159.23,159.23,0,0,1,1423,591.08C1396.8,675,1282,713.83,1223.56,695.57c-26.94-8.42-59.48-37.14-82.11-74.21C1160,641.91,1180.76,656.88,1199,662.57Z" transform="translate(-390.64 -375.33)"/></g><g class="cls-10"><path class="cls-11" d="M1119.08,496.1A159.28,159.28,0,0,1,1376,423.76a159.3,159.3,0,0,0-237.67,86.74c-20,63.93,19.73,136.4,63.69,174.77C1151.57,653.67,1096.21,569.3,1119.08,496.1Z" transform="translate(-390.64 -375.33)"/></g><path class="cls-4" d="M1257.71,709.31h0a123.68,123.68,0,0,1-36.82-5.15c-29.43-9.2-63.59-40-87-78.4-16-26.2-40.27-78.24-23.36-132.35a166.86,166.86,0,0,1,61.84-86A168,168,0,0,1,1321.24,383c88.53,27.67,138,122.21,110.38,210.75C1409,666.09,1325.45,709.31,1257.71,709.31Zm13.3-316a149.58,149.58,0,0,0-143.34,105.46c-14.79,47.34,7.15,94,21.54,117.61,21,34.37,51.93,62.74,77,70.59a106,106,0,0,0,31.45,4.33c61.24,0,136.61-38.49,156.74-102.91,24.71-79.06-19.51-163.49-98.57-188.2A150.42,150.42,0,0,0,1271,393.32Z" transform="translate(-390.64 -375.33)"/><path class="cls-5" d="M1185.26,516.78c-14.81,47.38,31.54,104,59,112.61,23.24,7.26,97.81-11.6,112.62-59a89.89,89.89,0,1,0-171.6-53.62Z" transform="translate(-390.64 -375.33)"/><g class="cls-12"><path class="cls-13" d="M1185.26,516.78A89.88,89.88,0,0,1,1338,483.65c-.79-.27-1.57-.56-2.37-.81a89.89,89.89,0,0,0-112.61,59c-9.67,30.95,6.74,65.83,26.93,88.71a32,32,0,0,1-5.75-1.14C1216.8,620.81,1170.45,564.16,1185.26,516.78Z" transform="translate(-390.64 -375.33)"/></g><path class="cls-4" d="M1260.25,640.5h0a63.39,63.39,0,0,1-18.68-2.52c-17.46-5.46-37.6-23.5-51.3-46-16.18-26.52-21-54.2-13.59-77.92a98.89,98.89,0,1,1,188.77,59C1351.07,619.07,1294.18,640.5,1260.25,640.5ZM1271,462.68a80.53,80.53,0,0,0-77.18,56.78c-7.89,25.25,4,50.43,11.77,63.19,11.39,18.65,28,34,41.31,38.15a46,46,0,0,0,13.31,1.7c29.73,0,76.85-19,88-54.78a80.94,80.94,0,0,0-77.24-105Z" transform="translate(-390.64 -375.33)"/><path class="cls-4" d="M1409.9,828c0,230-186.41,295.77-416.37,295.77S577.16,1057.92,577.16,828,763.58,411.59,993.53,411.59,1409.9,598,1409.9,828Z" transform="translate(-390.64 -375.33)"/><path class="cls-5" d="M1409.9,816.79c0,223.78-186.41,287.83-416.37,287.83s-416.37-64-416.37-287.83,186.42-405.2,416.37-405.2S1409.9,593,1409.9,816.79Z" transform="translate(-390.64 -375.33)"/><path class="cls-14" d="M993.53,1082.77c-226.18,0-410.24-62-416.22-277q-.15,5.48-.15,11c0,223.78,186.42,287.83,416.37,287.83s416.37-64,416.37-287.83q0-5.5-.15-11C1403.78,1020.8,1219.72,1082.77,993.53,1082.77Z" transform="translate(-390.64 -375.33)"/><path class="cls-4" d="M952.9,738.59c13.79,88.79-30.09,174.84-153,163.12-73.59-7-118.25-35.25-110-112.87,9.53-89.16,68.23-168.14,140.85-182S939.42,651.73,952.9,738.59" transform="translate(-390.64 -375.33)"/><path class="cls-15" d="M907.73,787.15c2.06,36.24-21.33,67.65-52.25,70.15s-57.66-24.83-59.73-61.07,21.33-67.65,52.26-70.15S905.67,750.91,907.73,787.15Z" transform="translate(-390.64 -375.33)"/><path class="cls-4" d="M897.08,804.71c1.43,25.29-14.89,47.21-36.48,49S820.36,836.34,818.92,811s14.88-47.21,36.47-49S895.63,779.41,897.08,804.71Z" transform="translate(-390.64 -375.33)"/><path class="cls-15" d="M893,798.84c2.47,8.37-2.71,17.28-11.58,19.91s-18.06-2.06-20.54-10.44S863.63,791,872.5,788.4,890.56,790.46,893,798.84Z" transform="translate(-390.64 -375.33)"/><path class="cls-16" d="M809.38,891.6c-.1,18.73-21,33.81-46.67,33.7s-46.45-15.4-46.36-34.14,21-33.81,46.67-33.7S809.46,872.87,809.38,891.6Z" transform="translate(-390.64 -375.33)"/><path class="cls-4" d="M1036.72,738.59c-13.79,88.79,30.08,174.84,153,163.12,73.6-7,118.25-35.25,110-112.87-9.53-89.16-68.23-168.14-140.84-182s-108.65,44.92-122.13,131.78" transform="translate(-390.64 -375.33)"/><path class="cls-15" d="M1081.88,787.15c-2.06,36.24,21.34,67.65,52.25,70.15s57.67-24.83,59.74-61.07-21.34-67.65-52.26-70.15S1083.94,750.91,1081.88,787.15Z" transform="translate(-390.64 -375.33)"/><path class="cls-4" d="M1092.54,804.71c-1.44,25.29,14.89,47.21,36.48,49s40.24-17.34,41.68-42.64-14.89-47.21-36.47-49S1094,779.41,1092.54,804.71Z" transform="translate(-390.64 -375.33)"/><path class="cls-15" d="M1096.58,798.84c-2.46,8.37,2.72,17.28,11.58,19.91s18.07-2.06,20.55-10.44S1126,791,1117.12,788.4,1099.06,790.46,1096.58,798.84Z" transform="translate(-390.64 -375.33)"/><path class="cls-16" d="M1180.24,891.6c.09,18.73,21,33.81,46.67,33.7s46.44-15.4,46.36-34.14-21-33.81-46.68-33.7S1180.15,872.87,1180.24,891.6Z" transform="translate(-390.64 -375.33)"/><path class="cls-4" d="M774.13,1095.31l-5.51-1.71c-1.81-.58-4.08-1.23-6.74-2.13l-9.24-3.15L741.08,1084c-4.18-1.76-8.83-3.49-13.7-5.75-2.43-1.11-5-2.17-7.59-3.45l-8-3.91-8.4-4.47c-2.88-1.54-5.75-3.31-8.75-5a264.07,264.07,0,0,1-37.31-26.68l-4.74-4.22-2.41-2.15-2.33-2.27-4.74-4.61-4.61-4.9c-3.17-3.24-6.06-6.84-9.15-10.39-1.5-1.81-2.92-3.71-4.4-5.58s-3-3.78-4.34-5.79l-4.25-6-4-6.28-2-3.19-1.9-3.29c-1.26-2.22-2.59-4.41-3.82-6.69a267.06,267.06,0,0,1-13.35-29,292.05,292.05,0,0,1-16.46-66.59c-.91-5.92-1.32-11.94-2-18q-.29-4.56-.58-9.17c-.09-1.54-.19-3.08-.29-4.62s-.08-3.1-.13-4.65q-.12-4.67-.26-9.36c0-3.14.09-6.3.13-9.47.11-6.25,0-12.5.61-19,.62-13,2.12-26,4-39.2.56-3.29,1.12-6.58,1.68-9.89.28-1.65.56-3.31.85-5s.57-3.33,1-5c1.5-6.59,2.86-13.28,4.52-19.93A417.11,417.11,0,0,1,659.68,566.3,432.27,432.27,0,0,1,723,500.53,419.79,419.79,0,0,1,801.17,449l5.27-2.71,2.64-1.36,2.69-1.23,10.82-4.91L828,436.3l5.53-2.2,11.09-4.39,2.77-1.09,2.82-1,5.66-1.92,11.32-3.84,11.51-3.29,5.76-1.65,2.88-.82,2.92-.68a431.32,431.32,0,0,1,95.12-12.65l6-.15,1.5,0c.35,0,.27,0,1,0l.74,0,2.95.08,11.77.31,5.89.17,6.07.46,12.11.94c4.07.22,8,.88,12,1.36l11.92,1.53c4,.61,7.88,1.39,11.82,2.08s7.89,1.34,11.79,2.21a428.72,428.72,0,0,1,90.32,30.07c7.27,3.11,14.15,7,21.18,10.5,3.53,1.72,6.89,3.76,10.3,5.71l10.17,5.87c3.34,2,6.58,4.23,9.87,6.33s6.58,4.17,9.76,6.43l9.46,6.8c3.15,2.25,6.32,4.49,9.3,6.95a431.83,431.83,0,0,1,65.86,63.24,414.29,414.29,0,0,1,49.44,73.07,423.57,423.57,0,0,1,31.81,78.17,411.5,411.5,0,0,1,15.17,78.32c.57,6.42.87,12.81,1.31,19.12.09,1.58.25,3.15.26,4.73s.05,3.15.07,4.72c0,3.13.09,6.25.13,9.36l.06,4.64,0,2.41-.06,2.27q-.13,4.56-.25,9.07c-.07,3-.34,6.09-.49,9.11s-.33,6.05-.66,9-.56,5.93-.84,8.88-.75,5.85-1.12,8.75c-.19,1.45-.39,2.9-.58,4.34l-.72,4.3c-.5,2.85-.91,5.7-1.48,8.51a305.76,305.76,0,0,1-8.14,32.54,285.07,285.07,0,0,1-11.47,29.74,247.88,247.88,0,0,1-14.25,26.49,225.4,225.4,0,0,1-16.33,22.95c-2.76,3.59-5.79,6.86-8.65,10.16-1.44,1.63-3,3.15-4.46,4.7s-2.9,3.11-4.45,4.53a255.67,255.67,0,0,1-35.58,29,281.44,281.44,0,0,1-31.85,18.57c-9.55,4.87-18,8.36-24.78,11.2s-12.14,4.72-15.75,5.94l-5.45,1.92,5.36-2.16c3.55-1.37,8.73-3.6,15.46-6.59a321,321,0,0,0,55-31.81,250.6,250.6,0,0,0,33.92-29.7c1.46-1.43,2.79-3,4.2-4.57s2.82-3.11,4.18-4.75c2.68-3.3,5.54-6.57,8.13-10.15a219.25,219.25,0,0,0,15.2-22.77,242.83,242.83,0,0,0,13-26.07,276,276,0,0,0,10.24-29.11c2.78-10.2,5.26-20.76,7.1-31.72.48-2.73.81-5.51,1.24-8.28.2-1.39.39-2.79.6-4.18s.3-2.82.46-4.23c.3-2.83.59-5.67.9-8.53s.4-5.74.61-8.64.32-5.8.43-8.72.27-5.8.27-8.82,0-6,0-9.06V828l-.08-2.17c-.06-1.51-.11-3-.17-4.53-.11-3-.23-6.05-.34-9.1-.06-1.53-.11-3.06-.17-4.59s-.25-3.06-.36-4.59c-.57-6.13-1-12.33-1.71-18.55a409.28,409.28,0,0,0-48-150.71,414,414,0,0,0-112.43-130,411.13,411.13,0,0,0-163.8-74.65c-3.74-.83-7.53-1.37-11.3-2.08s-7.54-1.38-11.33-2l-11.43-1.43c-3.8-.43-7.63-1.07-11.41-1.25l-11.37-.85-5.68-.43-5.89-.14-11.78-.28-2.94-.07-.74,0-.5,0-1.44,0-5.76.15a412.5,412.5,0,0,0-91.18,11.81l-2.8.64L889,434l-5.52,1.56-11,3.11-10.86,3.65-5.42,1.83-2.71.9-2.67,1.05-10.63,4.17-5.31,2.09-5.2,2.34-10.39,4.67-2.59,1.18-2.53,1.29L809,464.44l-10.11,5.17-9.82,5.63c-6.63,3.6-12.88,7.81-19.24,11.8-1.58,1-3.18,2-4.74,3l-4.59,3.24-9.18,6.45c-1.55,1.05-3,2.2-4.49,3.35l-4.41,3.43-8.8,6.87A414.3,414.3,0,0,0,597.22,723.92c-1.71,6.41-3.13,12.86-4.7,19.23-.41,1.58-.73,3.19-1,4.8l-.9,4.8c-.6,3.2-1.2,6.38-1.79,9.56-2.07,12.75-3.7,25.41-4.62,37.77-.68,6.13-.79,12.49-1,18.73q-.18,4.61-.34,9.17c0,3,0,6.09,0,9.11,0,1.51,0,3,0,4.53l.18,4.49c.12,3,.24,6,.36,8.93.5,5.9.75,11.78,1.5,17.53a302.28,302.28,0,0,0,5.48,33.6,287.27,287.27,0,0,0,8.88,31.22,258.88,258.88,0,0,0,12.08,28.37c1.12,2.24,2.35,4.4,3.51,6.58.58,1.09,1.16,2.17,1.75,3.24l1.87,3.14c1.26,2.09,2.51,4.15,3.74,6.2l4,5.94a234,234,0,0,0,34.56,40,259.45,259.45,0,0,0,35.73,27.54,314.07,314.07,0,0,0,31.81,18c4.73,2.44,9.28,4.36,13.37,6.29l11.32,4.81,9.07,3.54c2.62,1,4.86,1.76,6.65,2.42Z" transform="translate(-390.64 -375.33)"/><path class="cls-17" d="M1218.43,1219.23c-2.72-26.47-102.74-47.75-225.75-47.75-124.71,0-225.81,21.88-225.81,48.86a11.7,11.7,0,0,0,1.2,5.06c4.94,53.4,39.6,427.5,39.6,427.91,0,13.68,83,42.77,185.43,42.77s185.44-29.09,185.44-42.77l40.56-434.23Z" transform="translate(-390.64 -375.33)"/><path class="cls-4" d="M993.1,1702.38c-62,0-109.77-10.32-132.75-16.47-26.68-7.14-58.45-18.52-59-32.26-.76-8.54-30.24-326.84-39.49-426.66a17.69,17.69,0,0,1-1.33-6.65c0-36.21,116.77-55.16,232.12-55.16,59.86,0,116.42,5,159.29,14.09,43.19,9.15,67.37,21.19,72,35.81a6.31,6.31,0,0,1,1.4,4.59l-40.54,434c-.58,13.72-32.32,25.08-59,32.22C1102.87,1692.06,1055.07,1702.38,993.1,1702.38Zm-179.18-49.73c5.26,9.19,77.7,37.13,179.18,37.13s173.76-27.88,179.17-37.1l40.28-431.19a6.42,6.42,0,0,1-.39-1.61c-1.8-17.58-86.17-42.1-219.48-42.1-59.88,0-116.12,5-158.34,14.17-48.29,10.44-61.18,22.76-61.18,28.39a5.39,5.39,0,0,0,.6,2.35,6.31,6.31,0,0,1,.58,2.13C809.73,1606.81,813.52,1647.93,813.92,1652.65Z" transform="translate(-390.64 -375.33)"/><path class="cls-18" d="M814,1375.45s46.53,9.66,102.33-2c64.12-13.44,72.24-42.81,147.8-50.4,60.29-6.06,112,27.78,112,39.52l-25.39,282a2.66,2.66,0,0,1,.21,1c0,10.62-69.68,28.18-155.64,28.18s-155.64-17.56-155.64-28.18Z" transform="translate(-390.64 -375.33)"/><path class="cls-4" d="M995.36,1680c-53,0-92.48-6.41-111.31-10.23-49.32-10-50.6-19.91-50.63-23.94L807.74,1376a6.3,6.3,0,0,1,8-6.64c.14,0,16.08,4.56,42.17,4.56a253.78,253.78,0,0,0,57-6.68c26.8-6.2,43.73-14.9,60.1-23.31,21.82-11.21,44.37-22.8,88.49-27.23a151.16,151.16,0,0,1,15.1-.75c53.55,0,103.86,29,103.87,46.54,0,.19,0,.38,0,.57l-25.3,280.84a9.16,9.16,0,0,1,.14,1.57c0,3.82,0,14-50.63,24.25C1087.84,1673.58,1048.35,1680,995.36,1680Zm-149.44-35.78c7.13,7.06,65.51,23.18,149.44,23.18,82.82,0,140.75-15.69,149.12-22.9a5.12,5.12,0,0,1,0-.56l25.34-281.28c-2.51-7.42-40.23-34.06-91.24-34.06a137.91,137.91,0,0,0-13.84.69c-41.74,4.19-62.27,14.73-84,25.9-17,8.76-34.69,17.82-63,24.37a266.09,266.09,0,0,1-59.81,7,206,206,0,0,1-36.85-3.1Z" transform="translate(-390.64 -375.33)"/><path class="cls-5" d="M1022.5,1594.62c0,8.23-13.08,14.9-29.21,14.9h0c-16.13,0-29.21-6.67-29.21-14.9V931.12c0-8.23,13.08-14.9,29.21-14.9h0c16.13,0,29.21,6.67,29.21,14.9Z" transform="translate(-390.64 -375.33)"/><path class="cls-3" d="M993.29,916.22a54.15,54.15,0,0,0-10.53,1c10.92,2.16,18.68,7.55,18.68,13.89v663.5c0,6.34-7.76,11.73-18.68,13.89a54.94,54.94,0,0,0,10.53,1c16.13,0,29.21-6.67,29.21-14.9V931.12C1022.5,922.89,1009.42,916.22,993.29,916.22Z" transform="translate(-390.64 -375.33)"/><path class="cls-4" d="M993.29,1615.82c-20.24,0-35.51-9.11-35.51-21.2V931.12c0-12.09,15.27-21.2,35.51-21.2s35.51,9.11,35.51,21.2v663.5C1028.8,1606.71,1013.54,1615.82,993.29,1615.82Zm0-693.3c-14.21,0-22.91,5.57-22.91,8.6v663.5c0,3,8.7,8.6,22.91,8.6s22.91-5.56,22.91-8.6V931.12C1016.2,928.09,1007.5,922.52,993.29,922.52Z" transform="translate(-390.64 -375.33)"/><path class="cls-4" d="M993.29,944.47a69.41,69.41,0,0,1-32.39-7.91,6.3,6.3,0,0,1,6.34-10.9,57.47,57.47,0,0,0,26,6.21,52.57,52.57,0,0,0,25.77-6.82,6.3,6.3,0,0,1,6.83,10.58A64.42,64.42,0,0,1,993.29,944.47Z" transform="translate(-390.64 -375.33)"/><polygon class="cls-19" points="631.86 657.06 573.44 669.05 573.44 618.2 631.86 606.21 631.86 657.06"/><path class="cls-4" d="M964.08,1050.67a6.31,6.31,0,0,1-6.3-6.3V993.52a6.3,6.3,0,0,1,5-6.17l58.43-12a6.3,6.3,0,0,1,7.56,6.17v50.85a6.29,6.29,0,0,1-5,6.17l-58.42,12A6.08,6.08,0,0,1,964.08,1050.67Zm6.3-52v38l45.82-9.41v-38Z" transform="translate(-390.64 -375.33)"/><polygon class="cls-19" points="631.86 761.57 573.44 773.56 573.44 722.7 631.86 710.71 631.86 761.57"/><path class="cls-4" d="M964.08,1155.18a6.31,6.31,0,0,1-6.3-6.3V1098a6.3,6.3,0,0,1,5-6.17l58.43-12a6.3,6.3,0,0,1,7.56,6.17v50.85a6.3,6.3,0,0,1-5,6.17l-58.42,12A6.08,6.08,0,0,1,964.08,1155.18Zm6.3-52v38l45.82-9.41v-38Z" transform="translate(-390.64 -375.33)"/><polygon class="cls-19" points="631.86 864.44 573.44 876.43 573.44 825.58 631.86 813.59 631.86 864.44"/><path class="cls-4" d="M964.08,1258.06a6.31,6.31,0,0,1-6.3-6.3v-50.85a6.31,6.31,0,0,1,5-6.18l58.43-12a6.31,6.31,0,0,1,7.56,6.18v50.85a6.3,6.3,0,0,1-5,6.17l-58.42,12A6.08,6.08,0,0,1,964.08,1258.06Zm6.3-52v38l45.82-9.4v-38Z" transform="translate(-390.64 -375.33)"/><polygon class="cls-19" points="631.86 968.95 573.44 980.94 573.44 930.09 631.86 918.1 631.86 968.95"/><path class="cls-4" d="M964.08,1362.57a6.31,6.31,0,0,1-6.3-6.3v-50.86a6.3,6.3,0,0,1,5-6.17l58.43-12a6.3,6.3,0,0,1,7.56,6.17v50.86a6.3,6.3,0,0,1-5,6.17l-58.42,12A6.84,6.84,0,0,1,964.08,1362.57Zm6.3-52v38l45.82-9.4v-38Z" transform="translate(-390.64 -375.33)"/><polygon class="cls-19" points="631.86 1069.05 573.44 1081.04 573.44 1030.19 631.86 1018.2 631.86 1069.05"/><path class="cls-4" d="M964.08,1462.66a6.29,6.29,0,0,1-6.3-6.29v-50.86a6.3,6.3,0,0,1,5-6.17l58.43-12a6.3,6.3,0,0,1,7.56,6.17v50.86a6.28,6.28,0,0,1-5,6.16l-58.42,12A6.83,6.83,0,0,1,964.08,1462.66Zm6.3-52v38l45.82-9.4v-38Z" transform="translate(-390.64 -375.33)"/><polygon class="cls-19" points="631.86 1173.56 573.44 1185.55 573.44 1134.7 631.86 1122.71 631.86 1173.56"/><path class="cls-4" d="M964.08,1567.17a6.31,6.31,0,0,1-6.3-6.3V1510a6.3,6.3,0,0,1,5-6.17l58.43-12a6.3,6.3,0,0,1,7.56,6.17v50.85a6.28,6.28,0,0,1-5,6.17l-58.42,12A6.08,6.08,0,0,1,964.08,1567.17Zm6.3-52v38l45.82-9.4v-38Z" transform="translate(-390.64 -375.33)"/><g class="cls-20"><path class="cls-21" d="M1218.49,1220.34c0,27-101.1,48.85-225.81,48.85s-225.81-21.87-225.81-48.85,101.1-48.86,225.81-48.86S1218.49,1193.36,1218.49,1220.34Z" transform="translate(-390.64 -375.33)"/></g><path class="cls-4" d="M992.68,1275.49c-115.35,0-232.12-19-232.12-55.15,0-34,102.13-52,203.35-54.77a6.3,6.3,0,1,1,.34,12.6c-53.66,1.47-103,7.1-139,15.86-38.45,9.37-52.1,20-52.1,26.31,0,5.62,12.89,17.94,61.18,28.38,42.22,9.14,98.46,14.17,158.34,14.17s116.12-5,158.34-14.17c48.29-10.44,61.18-22.76,61.18-28.38,0-6.25-13.55-16.87-51.72-26.22-35.7-8.74-84.77-14.4-138.16-15.92a6.3,6.3,0,0,1,.36-12.59c100.61,2.87,202.11,20.91,202.11,54.73C1224.79,1256.54,1108,1275.49,992.68,1275.49Z" transform="translate(-390.64 -375.33)"/><path class="cls-22" d="M1174.38,1375.45s-46.53,9.66-102.33-2c-64.12-13.44-72.23-42.81-147.8-50.4-60.29-6.06-112,27.78-112,39.52l25.4,282a2.68,2.68,0,0,0-.22,1c0,10.62,69.68,28.18,155.64,28.18s155.64-17.56,155.64-28.18Z" transform="translate(-390.64 -375.33)"/><g class="cls-23"><path class="cls-24" d="M924.25,1345.92c75.57,7.59,83.68,37,147.8,50.4,48.66,10.21,90.25,4.16,100.11,2.45l2.22-23.32s-46.53,9.66-102.33-2c-64.12-13.44-72.23-42.81-147.8-50.4-60.29-6.06-112,27.78-112,39.52l1.67,18.58C823.14,1367.06,870.25,1340.49,924.25,1345.92Z" transform="translate(-390.64 -375.33)"/></g><path class="cls-4" d="M993,1680c-53,0-92.48-6.41-111.31-10.23-50.63-10.28-50.63-20.43-50.63-24.25a9.16,9.16,0,0,1,.14-1.57L805.94,1363.1a5.44,5.44,0,0,1,0-.57c0-17.5,50.32-46.54,103.88-46.54,5.05,0,10.13.25,15.09.75,44.12,4.43,66.68,16,88.49,27.23,16.37,8.41,33.3,17.11,60.1,23.31a253.85,253.85,0,0,0,57,6.68c26.1,0,42-4.52,42.18-4.56a6.3,6.3,0,0,1,8,6.64L1155,1645.82c0,4-1.31,13.92-50.63,23.94C1085.51,1673.58,1046,1680,993,1680Zm-149.12-35.5c8.37,7.21,66.3,22.9,149.12,22.9,83.94,0,142.31-16.12,149.44-23.18l24.82-260.75a206,206,0,0,1-36.85,3.1,266.22,266.22,0,0,1-59.81-7c-28.33-6.55-46-15.61-63-24.37-21.72-11.17-42.24-21.71-84-25.9a138.21,138.21,0,0,0-13.84-.69c-51,0-88.73,26.64-91.24,34.06l25.33,281.28A5.12,5.12,0,0,1,843.91,1644.49Z" transform="translate(-390.64 -375.33)"/><g class="cls-25"><path class="cls-5" d="M1022.5,1594.62c0,8.23-13.08,14.9-29.21,14.9h0c-16.13,0-29.21-6.67-29.21-14.9V931.12c0-8.23,13.08-14.9,29.21-14.9h0c16.13,0,29.21,6.67,29.21,14.9Z" transform="translate(-390.64 -375.33)"/><path class="cls-3" d="M993.29,916.22a54.15,54.15,0,0,0-10.53,1c10.92,2.16,18.68,7.55,18.68,13.89v663.5c0,6.34-7.76,11.73-18.68,13.89a54.94,54.94,0,0,0,10.53,1c16.13,0,29.21-6.67,29.21-14.9V931.12C1022.5,922.89,1009.42,916.22,993.29,916.22Z" transform="translate(-390.64 -375.33)"/><path class="cls-4" d="M993.29,1615.82c-20.24,0-35.51-9.11-35.51-21.2V931.12c0-12.09,15.27-21.2,35.51-21.2s35.51,9.11,35.51,21.2v663.5C1028.8,1606.71,1013.54,1615.82,993.29,1615.82Zm0-693.3c-14.21,0-22.91,5.57-22.91,8.6v663.5c0,3,8.7,8.6,22.91,8.6s22.91-5.56,22.91-8.6V931.12C1016.2,928.09,1007.5,922.52,993.29,922.52Z" transform="translate(-390.64 -375.33)"/><path class="cls-4" d="M993.29,944.47a69.41,69.41,0,0,1-32.39-7.91,6.3,6.3,0,0,1,6.34-10.9,57.47,57.47,0,0,0,26,6.21,52.57,52.57,0,0,0,25.77-6.82,6.3,6.3,0,0,1,6.83,10.58A64.42,64.42,0,0,1,993.29,944.47Z" transform="translate(-390.64 -375.33)"/><polygon class="cls-19" points="631.86 657.06 573.44 669.05 573.44 618.2 631.86 606.21 631.86 657.06"/><path class="cls-4" d="M964.08,1050.67a6.31,6.31,0,0,1-6.3-6.3V993.52a6.3,6.3,0,0,1,5-6.17l58.43-12a6.3,6.3,0,0,1,7.56,6.17v50.85a6.29,6.29,0,0,1-5,6.17l-58.42,12A6.08,6.08,0,0,1,964.08,1050.67Zm6.3-52v38l45.82-9.41v-38Z" transform="translate(-390.64 -375.33)"/><polygon class="cls-19" points="631.86 761.57 573.44 773.56 573.44 722.7 631.86 710.71 631.86 761.57"/><path class="cls-4" d="M964.08,1155.18a6.31,6.31,0,0,1-6.3-6.3V1098a6.3,6.3,0,0,1,5-6.17l58.43-12a6.3,6.3,0,0,1,7.56,6.17v50.85a6.3,6.3,0,0,1-5,6.17l-58.42,12A6.08,6.08,0,0,1,964.08,1155.18Zm6.3-52v38l45.82-9.41v-38Z" transform="translate(-390.64 -375.33)"/><polygon class="cls-19" points="631.86 864.44 573.44 876.43 573.44 825.58 631.86 813.59 631.86 864.44"/><path class="cls-4" d="M964.08,1258.06a6.31,6.31,0,0,1-6.3-6.3v-50.85a6.31,6.31,0,0,1,5-6.18l58.43-12a6.31,6.31,0,0,1,7.56,6.18v50.85a6.3,6.3,0,0,1-5,6.17l-58.42,12A6.08,6.08,0,0,1,964.08,1258.06Zm6.3-52v38l45.82-9.4v-38Z" transform="translate(-390.64 -375.33)"/><polygon class="cls-19" points="631.86 968.95 573.44 980.94 573.44 930.09 631.86 918.1 631.86 968.95"/><path class="cls-4" d="M964.08,1362.57a6.31,6.31,0,0,1-6.3-6.3v-50.86a6.3,6.3,0,0,1,5-6.17l58.43-12a6.3,6.3,0,0,1,7.56,6.17v50.86a6.3,6.3,0,0,1-5,6.17l-58.42,12A6.84,6.84,0,0,1,964.08,1362.57Zm6.3-52v38l45.82-9.4v-38Z" transform="translate(-390.64 -375.33)"/><polygon class="cls-19" points="631.86 1069.05 573.44 1081.04 573.44 1030.19 631.86 1018.2 631.86 1069.05"/><path class="cls-4" d="M964.08,1462.66a6.29,6.29,0,0,1-6.3-6.29v-50.86a6.3,6.3,0,0,1,5-6.17l58.43-12a6.3,6.3,0,0,1,7.56,6.17v50.86a6.28,6.28,0,0,1-5,6.16l-58.42,12A6.83,6.83,0,0,1,964.08,1462.66Zm6.3-52v38l45.82-9.4v-38Z" transform="translate(-390.64 -375.33)"/><polygon class="cls-19" points="631.86 1173.56 573.44 1185.55 573.44 1134.7 631.86 1122.71 631.86 1173.56"/><path class="cls-4" d="M964.08,1567.17a6.31,6.31,0,0,1-6.3-6.3V1510a6.3,6.3,0,0,1,5-6.17l58.43-12a6.3,6.3,0,0,1,7.56,6.17v50.85a6.28,6.28,0,0,1-5,6.17l-58.42,12A6.08,6.08,0,0,1,964.08,1567.17Zm6.3-52v38l45.82-9.4v-38Z" transform="translate(-390.64 -375.33)"/></g><g class="cls-10"><path class="cls-5" d="M1134.39,1234.82c0,7.62-65.06,22-145.33,22s-145.34-14.43-145.34-22,65.07,4.51,145.34,4.51S1134.39,1227.21,1134.39,1234.82Z" transform="translate(-390.64 -375.33)"/></g><path class="cls-4" d="M987.42,1226.63c-30.94,0-44.53-7.87-45.09-8.21a6.3,6.3,0,0,1,6.39-10.85c.34.18,12,6.47,38.7,6.47a184.11,184.11,0,0,0,50.46-7,6.3,6.3,0,1,1,3.85,12A194.77,194.77,0,0,1,987.42,1226.63Z" transform="translate(-390.64 -375.33)"/><g class="cls-26"><path class="cls-27" d="M943.11,1578.66a22.38,22.38,0,1,1-31.65,0A22.37,22.37,0,0,1,943.11,1578.66Z" transform="translate(-390.64 -375.33)"/></g><path class="cls-28" d="M939.91,1576.48a22.39,22.39,0,1,1-31.66,0A22.39,22.39,0,0,1,939.91,1576.48Z" transform="translate(-390.64 -375.33)"/><g class="cls-29"><path class="cls-28" d="M941.24,1578c-.42-.5-.86-1-1.33-1.47a22.39,22.39,0,1,0-31.66,31.66c.47.48,1,.92,1.46,1.34a22.35,22.35,0,0,1-5.19-15.4,5.75,5.75,0,0,0,2.14,1.34c3.53,1.19,7.58-1.37,9-5.71s-.21-8.82-3.75-10a5.7,5.7,0,0,0-1.07-.24l.17-.18A22.38,22.38,0,0,1,941.24,1578Z" transform="translate(-390.64 -375.33)"/></g><g class="cls-29"><path class="cls-28" d="M922.67,1581.26a2.66,2.66,0,1,1-2.66-2.65A2.66,2.66,0,0,1,922.67,1581.26Z" transform="translate(-390.64 -375.33)"/></g><g class="cls-26"><path class="cls-27" d="M1069.16,1611.71a22.39,22.39,0,1,1-31.66,0A22.4,22.4,0,0,1,1069.16,1611.71Z" transform="translate(-390.64 -375.33)"/></g><path class="cls-28" d="M1066,1609.54a22.39,22.39,0,1,1-31.66,0A22.38,22.38,0,0,1,1066,1609.54Z" transform="translate(-390.64 -375.33)"/><g class="cls-29"><path class="cls-28" d="M1067.29,1611c-.42-.5-.87-1-1.34-1.46a22.39,22.39,0,1,0-31.66,31.66c.47.47,1,.91,1.47,1.33a22.31,22.31,0,0,1-5.2-15.4,5.75,5.75,0,0,0,2.14,1.34c3.53,1.19,7.58-1.37,9-5.71s-.21-8.82-3.75-10a4.86,4.86,0,0,0-1.07-.23l.17-.19A22.39,22.39,0,0,1,1067.29,1611Z" transform="translate(-390.64 -375.33)"/></g><g class="cls-29"><path class="cls-28" d="M1048.71,1614.31a2.66,2.66,0,1,1-2.66-2.65A2.66,2.66,0,0,1,1048.71,1614.31Z" transform="translate(-390.64 -375.33)"/></g><g class="cls-26"><path class="cls-27" d="M1117.94,1514.73a22.39,22.39,0,1,1-31.65,0A22.39,22.39,0,0,1,1117.94,1514.73Z" transform="translate(-390.64 -375.33)"/></g><path class="cls-28" d="M1114.74,1512.55a22.39,22.39,0,1,1-31.66,0A22.39,22.39,0,0,1,1114.74,1512.55Z" transform="translate(-390.64 -375.33)"/><g class="cls-29"><path class="cls-28" d="M1116.07,1514c-.42-.5-.86-1-1.33-1.47a22.39,22.39,0,1,0-31.66,31.67c.47.47,1,.91,1.46,1.33a22.35,22.35,0,0,1-5.19-15.4,5.75,5.75,0,0,0,2.14,1.34c3.53,1.19,7.58-1.37,9-5.71s-.22-8.82-3.75-10a5.67,5.67,0,0,0-1.07-.23l.17-.19A22.38,22.38,0,0,1,1116.07,1514Z" transform="translate(-390.64 -375.33)"/></g><g class="cls-29"><path class="cls-28" d="M1097.49,1517.33a2.66,2.66,0,1,1-2.65-2.65A2.65,2.65,0,0,1,1097.49,1517.33Z" transform="translate(-390.64 -375.33)"/></g><g class="cls-26"><path class="cls-27" d="M897.88,1540.44a27.58,27.58,0,1,1-39,0A27.58,27.58,0,0,1,897.88,1540.44Z" transform="translate(-390.64 -375.33)"/></g><path class="cls-28" d="M893.94,1537.75a27.58,27.58,0,1,1-39,0A27.59,27.59,0,0,1,893.94,1537.75Z" transform="translate(-390.64 -375.33)"/><g class="cls-29"><path class="cls-28" d="M895.58,1539.55c-.52-.61-1.06-1.22-1.64-1.8a27.58,27.58,0,0,0-39,39c.59.59,1.19,1.13,1.81,1.65a27.54,27.54,0,0,1-6.4-19,6.89,6.89,0,0,0,2.64,1.66c4.35,1.46,9.33-1.69,11.13-7s-.26-10.86-4.61-12.33a7.81,7.81,0,0,0-1.32-.29l.2-.22A27.59,27.59,0,0,1,895.58,1539.55Z" transform="translate(-390.64 -375.33)"/></g><g class="cls-29"><path class="cls-28" d="M872.69,1543.64a3.27,3.27,0,1,1-3.27-3.27A3.26,3.26,0,0,1,872.69,1543.64Z" transform="translate(-390.64 -375.33)"/></g><g class="cls-26"><path class="cls-27" d="M1023.14,1562.44a27.58,27.58,0,1,1-39,0A27.59,27.59,0,0,1,1023.14,1562.44Z" transform="translate(-390.64 -375.33)"/></g><path class="cls-28" d="M1019.19,1559.76a27.57,27.57,0,1,1-39,0A27.56,27.56,0,0,1,1019.19,1559.76Z" transform="translate(-390.64 -375.33)"/><g class="cls-29"><path class="cls-28" d="M1020.83,1561.56a23.16,23.16,0,0,0-1.64-1.8,27.57,27.57,0,1,0-39,39c.58.59,1.19,1.13,1.8,1.65a27.51,27.51,0,0,1-6.39-19,6.87,6.87,0,0,0,2.63,1.65c4.35,1.46,9.34-1.69,11.14-7s-.27-10.87-4.62-12.33a6,6,0,0,0-1.32-.29c.08-.08.13-.15.2-.23A27.58,27.58,0,0,1,1020.83,1561.56Z" transform="translate(-390.64 -375.33)"/></g><g class="cls-29"><path class="cls-28" d="M998,1565.64a3.28,3.28,0,1,1-3.27-3.27A3.28,3.28,0,0,1,998,1565.64Z" transform="translate(-390.64 -375.33)"/></g><g class="cls-26"><path class="cls-27" d="M1125.65,1582.69a27.58,27.58,0,1,1-39,0A27.59,27.59,0,0,1,1125.65,1582.69Z" transform="translate(-390.64 -375.33)"/></g><path class="cls-28" d="M1121.7,1580a27.58,27.58,0,1,1-39,0A27.58,27.58,0,0,1,1121.7,1580Z" transform="translate(-390.64 -375.33)"/><g class="cls-29"><path class="cls-28" d="M1123.34,1581.81c-.51-.62-1.06-1.23-1.64-1.81a27.58,27.58,0,0,0-39,39c.58.59,1.18,1.13,1.8,1.65a27.51,27.51,0,0,1-6.39-19,6.87,6.87,0,0,0,2.63,1.65c4.35,1.46,9.34-1.69,11.14-7s-.27-10.87-4.62-12.34a6.6,6.6,0,0,0-1.32-.28c.08-.08.14-.16.2-.23A27.58,27.58,0,0,1,1123.34,1581.81Z" transform="translate(-390.64 -375.33)"/></g><g class="cls-29"><path class="cls-28" d="M1100.46,1585.89a3.28,3.28,0,1,1-3.27-3.27A3.27,3.27,0,0,1,1100.46,1585.89Z" transform="translate(-390.64 -375.33)"/></g><g class="cls-26"><path class="cls-27" d="M892.08,1604.28a19.38,19.38,0,1,1-27.4,0A19.37,19.37,0,0,1,892.08,1604.28Z" transform="translate(-390.64 -375.33)"/></g><path class="cls-28" d="M889.31,1602.4a19.37,19.37,0,1,1-27.4,0A19.37,19.37,0,0,1,889.31,1602.4Z" transform="translate(-390.64 -375.33)"/><g class="cls-29"><path class="cls-28" d="M890.46,1603.66a17,17,0,0,0-1.15-1.26,19.37,19.37,0,1,0-27.4,27.4c.41.41.83.79,1.27,1.16a19.37,19.37,0,0,1-4.5-13.34,5,5,0,0,0,1.85,1.17c3.06,1,6.56-1.19,7.83-4.94s-.19-7.64-3.25-8.67a4.87,4.87,0,0,0-.92-.2l.14-.16A19.37,19.37,0,0,1,890.46,1603.66Z" transform="translate(-390.64 -375.33)"/></g><g class="cls-29"><path class="cls-28" d="M874.39,1606.53a2.3,2.3,0,1,1-2.3-2.29A2.3,2.3,0,0,1,874.39,1606.53Z" transform="translate(-390.64 -375.33)"/></g><g class="cls-26"><path class="cls-27" d="M961.55,1531a19.37,19.37,0,1,1-27.4,0A19.37,19.37,0,0,1,961.55,1531Z" transform="translate(-390.64 -375.33)"/></g><path class="cls-28" d="M958.78,1529.09a19.37,19.37,0,1,1-27.4,0A19.37,19.37,0,0,1,958.78,1529.09Z" transform="translate(-390.64 -375.33)"/><g class="cls-29"><path class="cls-28" d="M959.94,1530.36c-.37-.43-.75-.86-1.16-1.27a19.37,19.37,0,1,0-27.4,27.4c.41.41.83.8,1.27,1.16a19.33,19.33,0,0,1-4.5-13.33,5,5,0,0,0,1.85,1.16c3.06,1,6.56-1.18,7.83-4.94s-.19-7.64-3.25-8.66a4.23,4.23,0,0,0-.92-.21l.14-.15A19.39,19.39,0,0,1,959.94,1530.36Z" transform="translate(-390.64 -375.33)"/></g><g class="cls-29"><path class="cls-28" d="M943.86,1533.23a2.3,2.3,0,1,1-2.3-2.3A2.3,2.3,0,0,1,943.86,1533.23Z" transform="translate(-390.64 -375.33)"/></g><g class="cls-26"><path class="cls-27" d="M983.72,1618.2a19.37,19.37,0,1,1-27.4,0A19.37,19.37,0,0,1,983.72,1618.2Z" transform="translate(-390.64 -375.33)"/></g><path class="cls-28" d="M981,1616.31a19.37,19.37,0,1,1-27.4,0A19.37,19.37,0,0,1,981,1616.31Z" transform="translate(-390.64 -375.33)"/><g class="cls-29"><path class="cls-28" d="M982.11,1617.58c-.37-.43-.75-.86-1.16-1.27a19.37,19.37,0,0,0-27.4,27.4c.41.41.83.8,1.27,1.16a19.27,19.27,0,0,1-4.49-13.33,4.84,4.84,0,0,0,1.84,1.16c3.06,1,6.56-1.18,7.83-4.94s-.19-7.64-3.25-8.66a4.23,4.23,0,0,0-.92-.21l.14-.16A19.4,19.4,0,0,1,982.11,1617.58Z" transform="translate(-390.64 -375.33)"/></g><g class="cls-29"><path class="cls-28" d="M966,1620.45a2.3,2.3,0,1,1-2.3-2.3A2.3,2.3,0,0,1,966,1620.45Z" transform="translate(-390.64 -375.33)"/></g><g class="cls-26"><path class="cls-27" d="M1065.21,1538.93a19.37,19.37,0,1,1-27.4,0A19.37,19.37,0,0,1,1065.21,1538.93Z" transform="translate(-390.64 -375.33)"/></g><path class="cls-28" d="M1062.44,1537a19.37,19.37,0,1,1-27.4,0A19.38,19.38,0,0,1,1062.44,1537Z" transform="translate(-390.64 -375.33)"/><g class="cls-29"><path class="cls-28" d="M1063.59,1538.31c-.36-.44-.75-.86-1.15-1.27a19.37,19.37,0,0,0-27.4,27.4c.4.41.83.79,1.26,1.16a19.35,19.35,0,0,1-4.49-13.33,4.88,4.88,0,0,0,1.85,1.16c3.06,1,6.56-1.19,7.82-4.94s-.19-7.64-3.24-8.67a5.15,5.15,0,0,0-.93-.2l.15-.16A19.37,19.37,0,0,1,1063.59,1538.31Z" transform="translate(-390.64 -375.33)"/></g><g class="cls-29"><path class="cls-28" d="M1047.51,1541.18a2.3,2.3,0,1,1-2.3-2.3A2.29,2.29,0,0,1,1047.51,1541.18Z" transform="translate(-390.64 -375.33)"/></g><g class="cls-30"><path class="cls-5" d="M840.66,1620.66c2.73,12.32,17.94,16.42,21.22,4.12,0-.09,1.79-17,.41-27.2-8.41-61.41-.4-248-13.11-279.15-5.31-13-25.25-38.89-51.63-14.89-8.85,8,.51,54.26,1.88,68.84q8.3,88.11,25.11,175.3C825.58,1553,834.74,1594,840.66,1620.66Z" transform="translate(-390.64 -375.33)"/></g><g class="cls-6"><path class="cls-17" d="M1213.55,1210.14l-.2-.21Z" transform="translate(-390.64 -375.33)"/></g><g class="cls-6"><path class="cls-17" d="M1214.61,1211.29c-.07-.08-.14-.17-.22-.25C1214.47,1211.12,1214.54,1211.21,1214.61,1211.29Z" transform="translate(-390.64 -375.33)"/></g><g class="cls-6"><path class="cls-17" d="M1215.54,1212.45a2.83,2.83,0,0,0-.2-.28A2.83,2.83,0,0,1,1215.54,1212.45Z" transform="translate(-390.64 -375.33)"/></g><g class="cls-6"><path class="cls-17" d="M1211,1207.85l0,0Z" transform="translate(-390.64 -375.33)"/></g><g class="cls-6"><path class="cls-17" d="M1212.22,1208.87l.15.13Z" transform="translate(-390.64 -375.33)"/></g><g class="cls-6"><path class="cls-17" d="M1218.43,1219.23a10.32,10.32,0,0,1,.06,1.11c0,13.56-25.54,25.83-66.78,34.68l-32.34,426.07c36.39-9.23,59.17-20.62,59.17-27.78l40.56-434.23Z" transform="translate(-390.64 -375.33)"/></g><g class="cls-6"><path class="cls-17" d="M1218,1217.08c0-.08,0-.16-.07-.25C1217.94,1216.92,1218,1217,1218,1217.08Z" transform="translate(-390.64 -375.33)"/></g><g class="cls-6"><path class="cls-17" d="M1218.27,1218.2l0-.17Z" transform="translate(-390.64 -375.33)"/></g><g class="cls-6"><path class="cls-17" d="M1216.35,1213.6l-.19-.29Z" transform="translate(-390.64 -375.33)"/></g><g class="cls-6"><path class="cls-17" d="M1217,1214.77c0-.1-.1-.2-.16-.3Z" transform="translate(-390.64 -375.33)"/></g><g class="cls-6"><path class="cls-17" d="M1217.57,1215.93c0-.09-.07-.19-.11-.28C1217.5,1215.75,1217.53,1215.84,1217.57,1215.93Z" transform="translate(-390.64 -375.33)"/></g><path class="cls-4" d="M775.22,1160.81c-23.34-48.74-106.41-17-127.43,34-9.73,23.58-2.78,57.53,23.67,81.83,105.58,97,220.69,121.21,235.73,76.8s-25.45-61.06-51.89-89.84S775.22,1160.81,775.22,1160.81Z" transform="translate(-390.64 -375.33)"/><g class="cls-10"><path class="cls-11" d="M775.22,1160.81a.47.47,0,0,0-.05-.1c4,18.42,23.77,69,69.88,109.24,25.78,22.48,46.5,33.89,66.73,61.7-.58-32.05-33.9-43.52-56.48-68.1C828.86,1234.77,775.22,1160.81,775.22,1160.81Z" transform="translate(-390.64 -375.33)"/></g><g class="cls-6"><path class="cls-31" d="M914.15,1337.32c-.36,1.39-.79,2.81-1.27,4.25-15.32,45.45-141.56,5.49-242.71-80.16-12.65-10.71-22.21-28-26.46-40.43,1.32,17.24,11.24,40.59,28.52,56.47,105.58,97,223.9,121.81,238.93,77.4A52.52,52.52,0,0,0,914.15,1337.32Z" transform="translate(-390.64 -375.33)"/></g><path class="cls-4" d="M644.66,1203.22s-.16.57-.48,1.65a14.89,14.89,0,0,0-.51,2,23.93,23.93,0,0,0-.47,2.82c-.6,4.29-.36,10.73,1.73,18.49s6.19,16.71,12.26,26.08a146.3,146.3,0,0,0,41.27,41.32c6.26,4.16,12.68,8.42,19.44,12.64,13.48,8.46,28,16.82,43.34,24.91a458.49,458.49,0,0,0,48.4,22.09,262.3,262.3,0,0,0,25.77,8.48,144.45,144.45,0,0,0,26.44,4.77c8.76.68,17.63.27,25.17-2.61a27.4,27.4,0,0,0,9.77-6.19,25.3,25.3,0,0,0,3.54-4.48,26.12,26.12,0,0,0,1.39-2.55,11.65,11.65,0,0,0,.61-1.34l.28-.68.14-.34.07-.17s.1-.25,0,0l1.11-3.25c.42-1.12.58-2,.88-3s.51-2,.72-3a27.18,27.18,0,0,0,.56-3,39.46,39.46,0,0,0,.17-12,36.53,36.53,0,0,0-3.56-11.2,52.57,52.57,0,0,0-6.75-10c-5.26-6.31-11.63-11.84-17.89-17.36s-12.65-10.88-18.52-16.57l-2.18-2.16-1.09-1.11-1-1.07-4.07-4.24-4-4.17c-1.32-1.4-2.59-2.84-3.87-4.24-5.16-5.6-9.93-11.15-14.52-16.46-9.09-10.71-17-20.89-23.73-30.07s-12.29-17.43-16.74-24.28-7.69-12.41-9.86-16.2-3.25-5.87-3.25-5.87,1.26,2,3.74,5.56,6.24,8.78,11.11,15.3,11,14.27,18.22,23,15.67,18.28,25.1,28.5c4.78,5,9.76,10.32,15.06,15.56,2.61,2.66,5.34,5.33,8.14,8l4.21,4.1,1.06,1,1,1,2.14,2c5.81,5.27,12.18,10.33,18.74,15.64s13.31,11,19.43,18a62.67,62.67,0,0,1,8.19,11.68,46.62,46.62,0,0,1,4.81,14.12,49.85,49.85,0,0,1,.13,15c-.14,1.24-.37,2.46-.63,3.67s-.5,2.42-.86,3.65-.66,2.55-1,3.58l-1.08,3.26-.79,2a18,18,0,0,1-.8,1.8,34.13,34.13,0,0,1-1.9,3.51,35.37,35.37,0,0,1-5,6.38,37.88,37.88,0,0,1-13.42,8.7c-9.88,3.79-20.12,4.16-29.85,3.47a155.77,155.77,0,0,1-28.38-5.3,276.22,276.22,0,0,1-26.75-9,420.26,420.26,0,0,1-49.12-23.47c-15.46-8.46-29.84-17.56-43.21-26.55-6.65-4.52-13.12-9-19.17-13.51a150.9,150.9,0,0,1-17-14.41,141.8,141.8,0,0,1-23.7-30.62,92.51,92.51,0,0,1-10.84-27.71,47,47,0,0,1-.24-19.06,23.9,23.9,0,0,1,.72-2.82,15.59,15.59,0,0,1,.68-2Z" transform="translate(-390.64 -375.33)"/><path class="cls-4" d="M900.64,1354.89a141.22,141.22,0,0,1-65-21.23c-1.31-.8-3,.34-1.86,1.52,16.8,17.24,43.41,26.51,67.09,23.12A1.71,1.71,0,0,0,900.64,1354.89Z" transform="translate(-390.64 -375.33)"/><path class="cls-4" d="M911.8,1337.74a141.17,141.17,0,0,1-60-32.71c-1.14-1-3-.21-2.1,1.16,13.37,20,37.85,34,61.76,35A1.71,1.71,0,0,0,911.8,1337.74Z" transform="translate(-390.64 -375.33)"/><path class="cls-4" d="M1195.66,1160.81c23.34-48.74,106.41-17,127.44,34,9.72,23.58,2.77,57.53-23.67,81.83-105.59,97-220.7,121.21-235.73,76.8s25.44-61.06,51.89-89.84S1195.66,1160.81,1195.66,1160.81Z" transform="translate(-390.64 -375.33)"/><g class="cls-10"><path class="cls-11" d="M1195.66,1160.81l0-.1c-3.94,18.42-23.76,69-69.88,109.24-25.77,22.48-46.5,33.89-66.73,61.7.58-32.05,33.9-43.52,56.49-68.1C1142,1234.77,1195.66,1160.81,1195.66,1160.81Z" transform="translate(-390.64 -375.33)"/></g><g class="cls-6"><path class="cls-31" d="M1056.73,1337.32c.37,1.39.79,2.81,1.28,4.25,15.31,45.45,141.55,5.49,242.7-80.16,12.66-10.71,22.21-28,26.46-40.43-1.31,17.24-11.24,40.59-28.51,56.47-105.58,97-223.9,121.81-238.94,77.4A52.52,52.52,0,0,1,1056.73,1337.32Z" transform="translate(-390.64 -375.33)"/></g><path class="cls-4" d="M1326.22,1203.22s.21.55.63,1.6a15.75,15.75,0,0,1,.67,2,22.09,22.09,0,0,1,.72,2.82,47.18,47.18,0,0,1-.23,19.06,92.84,92.84,0,0,1-10.85,27.71,141.42,141.42,0,0,1-23.69,30.62,152.7,152.7,0,0,1-17,14.41c-6.06,4.51-12.52,9-19.18,13.51-13.36,9-27.75,18.09-43.21,26.55A420.26,420.26,0,0,1,1165,1365a275.31,275.31,0,0,1-26.75,9,155.61,155.61,0,0,1-28.38,5.3c-9.73.69-20,.32-29.85-3.47a38,38,0,0,1-13.41-8.7,35.43,35.43,0,0,1-5-6.38,38.47,38.47,0,0,1-1.9-3.51,18,18,0,0,1-.8-1.8l-.78-2-1.09-3.26c-.38-1-.69-2.4-1-3.58s-.62-2.44-.86-3.65a34.75,34.75,0,0,1-.64-3.67,49.85,49.85,0,0,1,.13-15,46.9,46.9,0,0,1,4.81-14.12,63.14,63.14,0,0,1,8.19-11.68c6.12-7,12.87-12.65,19.43-18s12.94-10.37,18.74-15.64l2.15-2,1-1,1.06-1,4.21-4.1c2.8-2.71,5.54-5.38,8.14-8,5.31-5.24,10.28-10.51,15.07-15.56,9.43-10.22,17.85-19.8,25.09-28.5s13.33-16.48,18.22-23,8.66-11.69,11.12-15.3,3.73-5.56,3.73-5.56-1.08,2.07-3.25,5.87-5.4,9.35-9.86,16.2-9.94,15.13-16.74,24.28-14.64,19.36-23.73,30.07c-4.59,5.31-9.36,10.86-14.52,16.46-1.27,1.4-2.55,2.84-3.87,4.24l-4,4.17q-2,2.12-4.07,4.24l-1,1.07-1.09,1.11-2.17,2.16c-5.87,5.69-12.21,11.09-18.52,16.57s-12.64,11-17.9,17.36a53.52,53.52,0,0,0-6.75,10,36.78,36.78,0,0,0-3.55,11.2,39.77,39.77,0,0,0,.16,12,29.65,29.65,0,0,0,.56,3c.21,1,.42,2,.72,3s.47,1.88.88,3l1.12,3.25c-.08-.21,0,0,0,0l.07.17.14.34.28.68a13.65,13.65,0,0,0,.61,1.34,28.51,28.51,0,0,0,1.4,2.55,24.42,24.42,0,0,0,3.54,4.48,27.27,27.27,0,0,0,9.76,6.19c7.55,2.88,16.41,3.29,25.18,2.61a144.19,144.19,0,0,0,26.43-4.77,262.3,262.3,0,0,0,25.77-8.48,456.65,456.65,0,0,0,48.4-22.09c15.31-8.09,29.86-16.45,43.34-24.91,6.76-4.22,13.18-8.48,19.45-12.64a146.49,146.49,0,0,0,41.26-41.32c6.08-9.37,10.18-18.33,12.27-26.08s2.32-14.2,1.72-18.49a23.93,23.93,0,0,0-.47-2.82,15,15,0,0,0-.5-2Z" transform="translate(-390.64 -375.33)"/><path class="cls-4" d="M1070.25,1354.89a141.25,141.25,0,0,0,65-21.23c1.3-.8,3,.34,1.85,1.52-16.8,17.24-43.41,26.51-67.09,23.12A1.71,1.71,0,0,1,1070.25,1354.89Z" transform="translate(-390.64 -375.33)"/><path class="cls-4" d="M1059.09,1337.74a141.14,141.14,0,0,0,60-32.71c1.14-1,3-.21,2.11,1.16-13.38,20-37.86,34-61.76,35A1.71,1.71,0,0,1,1059.09,1337.74Z" transform="translate(-390.64 -375.33)"/><path class="cls-5" d="M775.83,1474.78c47.16,69,64.5,159.58,9.73,204.58-74.73,61.39-174.52,9.26-221.69-59.77s-37.94-157.41,20.59-197.4S728.67,1405.75,775.83,1474.78Z" transform="translate(-390.64 -375.33)"/><g class="cls-10"><path class="cls-11" d="M583.43,1612.3c-47.16-69-37.95-157.41,20.59-197.39a109.72,109.72,0,0,1,14.2-8.18,110.36,110.36,0,0,0-33.76,15.46c-58.53,40-67.75,128.37-20.59,197.4,42.09,61.6,126.1,109.74,196.8,75.75C694.61,1713.19,621.69,1668.31,583.43,1612.3Z" transform="translate(-390.64 -375.33)"/></g><g class="cls-8"><path class="cls-7" d="M775.83,1474.78c-29.36-43-73.66-68.32-117-71.68,26.69,12,51.41,32.13,70.09,59.46,47.17,69,64.5,159.59,9.73,204.59-26.56,21.82-56.29,29.29-85.7,26.76,43.22,18.64,91.69,19.1,132.65-14.55C840.33,1634.36,823,1543.81,775.83,1474.78Z" transform="translate(-390.64 -375.33)"/></g><path class="cls-4" d="M691.47,1712.11c-49.7-7.08-100.77-41-133.29-88.64-23.73-34.73-34.56-75.28-30.5-114.19,4.1-39.33,22.89-72.28,52.89-92.78,25.19-17.2,55.49-23.88,87.63-19.3,44.34,6.31,85.64,33.18,113.32,73.69,25.14,36.81,40.86,77.49,44.26,114.57,3.89,42.45-8.5,76.76-35.85,99.22C761.8,1707.79,727.75,1717.28,691.47,1712.11Zm-25.21-301.27c-28.68-4.09-55.62,1.8-77.91,17-26.61,18.18-43.29,47.6-47,82.83-3.72,35.66,6.29,73,28.18,105,29.93,43.82,78.55,76.31,123.85,82.77,32.82,4.67,62.35-3.54,87.77-24.43,29.89-24.55,33.29-61,30.88-87.33-3.19-34.77-18.08-73.15-41.91-108C744.64,1441.34,706.78,1416.61,666.26,1410.84Z" transform="translate(-390.64 -375.33)"/><path class="cls-5" d="M1211.23,1474.78c-47.16,69-64.5,159.58-9.73,204.58,74.74,61.39,174.53,9.26,221.69-59.77s38-157.41-20.59-197.4S1258.39,1405.75,1211.23,1474.78Z" transform="translate(-390.64 -375.33)"/><g class="cls-10"><path class="cls-11" d="M1403.63,1612.3c47.16-69,37.95-157.41-20.58-197.39a110.51,110.51,0,0,0-14.21-8.18,110.25,110.25,0,0,1,33.76,15.46c58.54,40,67.75,128.37,20.59,197.4-42.09,61.6-126.09,109.74-196.8,75.75C1292.46,1713.19,1365.37,1668.31,1403.63,1612.3Z" transform="translate(-390.64 -375.33)"/></g><g class="cls-8"><path class="cls-7" d="M1211.23,1474.78c29.36-43,73.66-68.32,117-71.68-26.69,12-51.41,32.13-70.09,59.46-47.16,69-64.5,159.59-9.73,204.59,26.57,21.82,56.29,29.29,85.7,26.76-43.21,18.64-91.69,19.1-132.65-14.55C1146.73,1634.36,1164.07,1543.81,1211.23,1474.78Z" transform="translate(-390.64 -375.33)"/></g><path class="cls-4" d="M1197.13,1684.68c-27.34-22.46-39.74-56.77-35.85-99.22,3.4-37.08,19.12-77.76,44.26-114.57,27.68-40.51,69-67.38,113.32-73.69,32.14-4.58,62.45,2.1,87.62,19.3,30,20.5,48.8,53.45,52.9,92.78,4.06,38.91-6.77,79.46-30.5,114.19-32.51,47.59-83.58,81.56-133.29,88.64C1259.31,1717.28,1225.26,1707.79,1197.13,1684.68Zm19.79-206c-23.84,34.9-38.73,73.28-41.92,108-2.41,26.29,1,62.78,30.88,87.33,25.42,20.89,55,29.1,87.77,24.43,45.3-6.46,93.91-39,123.85-82.77,21.89-32,31.9-69.33,28.18-105-3.67-35.23-20.35-64.65-47-82.83-22.29-15.24-49.23-21.13-77.91-17C1280.29,1416.61,1242.43,1441.34,1216.92,1478.66Z" transform="translate(-390.64 -375.33)"/><path class="cls-5" d="M993.27,937.34c0,20.94-17,40.18-35.49,40.18s-31.61-19.24-31.61-40.18,15-37.91,33.55-37.91S993.27,916.4,993.27,937.34Z" transform="translate(-390.64 -375.33)"/><path class="cls-5" d="M1069.73,937.34c0,20.94-14.64,40.18-33.17,40.18S998.16,952,998.16,931s19.49-31.61,38-31.61S1069.73,916.4,1069.73,937.34Z" transform="translate(-390.64 -375.33)"/><path class="cls-4" d="M909.49,963.57l.27.25.82.75c.75.64,1.84,1.57,3.31,2.66a60.45,60.45,0,0,0,5.46,3.59,56,56,0,0,0,7.51,3.64,46.49,46.49,0,0,0,9.28,2.56,40.9,40.9,0,0,0,10.41.35c.89,0,1.78-.23,2.68-.33s1.79-.34,2.68-.51,1.79-.44,2.67-.71,1.81-.52,2.62-.85a35.67,35.67,0,0,0,9.56-5.2,31.23,31.23,0,0,0,7.25-7.92,89.84,89.84,0,0,0,5.13-9.27c1.56-3.11,3.09-6.19,4.51-9.22s2.71-6,3.89-8.8c2.38-5.81,4.37-10.65,5.77-14,.74-1.76,1.32-3.16,1.74-4.12s.65-1.48.65-1.48h1.6s.24.55.58,1.58c.19.52.37,1.15.57,1.91s.44,1.62.64,2.6a56.42,56.42,0,0,1,1,7.1,62.35,62.35,0,0,1,0,9.31,64.88,64.88,0,0,1-1.72,11,49.69,49.69,0,0,1-4.54,11.89,48.23,48.23,0,0,1-8.51,11.14,59.82,59.82,0,0,1-11.64,8.92,45.89,45.89,0,0,1-13.49,5.24,49.14,49.14,0,0,1-13.62,1.07,47.39,47.39,0,0,1-12.35-2.44,52.49,52.49,0,0,1-10-4.69,55.68,55.68,0,0,1-7.35-5.41,51.49,51.49,0,0,1-5-4.86c-1.27-1.43-2.21-2.61-2.82-3.44l-.68-1-.24-.34Z" transform="translate(-390.64 -375.33)"/><path class="cls-4" d="M1084.76,964.58l-.23.34-.68,1c-.61.83-1.55,2-2.83,3.44a50.12,50.12,0,0,1-5,4.86,55.17,55.17,0,0,1-7.36,5.41,52.39,52.39,0,0,1-10,4.69,47.39,47.39,0,0,1-12.35,2.44,49.24,49.24,0,0,1-13.63-1.07,45.83,45.83,0,0,1-13.48-5.24,59.82,59.82,0,0,1-11.64-8.92,48.23,48.23,0,0,1-8.51-11.14,49.59,49.59,0,0,1-4.54-11.9,64.37,64.37,0,0,1-1.68-20.33,54.63,54.63,0,0,1,1-7.1c.2-1,.44-1.85.64-2.6s.38-1.39.57-1.91c.34-1,.57-1.58.57-1.58h1.6s.24.51.66,1.48,1,2.36,1.74,4.12l5.77,14c1.18,2.8,2.47,5.77,3.89,8.8s2.94,6.11,4.51,9.22a91.66,91.66,0,0,0,5.12,9.27,31.6,31.6,0,0,0,7.25,7.92,36,36,0,0,0,9.56,5.2c.81.33,1.76.56,2.63.85s1.78.46,2.67.71,1.78.37,2.68.51,1.79.28,2.68.33a40.92,40.92,0,0,0,10.41-.35,46.2,46.2,0,0,0,9.27-2.56,55.59,55.59,0,0,0,7.52-3.64,60.45,60.45,0,0,0,5.46-3.59c1.47-1.09,2.56-2,3.3-2.66l.83-.75.27-.25Z" transform="translate(-390.64 -375.33)"/><path class="cls-4" d="M935.67,873.12c-.84-11.75,16.42-18.69,34.33-19,15.37-.23,58.27-.59,71.68,1.68,10.24,1.73,11.25,9.44,10.55,18.64a9.3,9.3,0,0,1-.11,1.15c-.19,1.29-.43,2.54-.69,3.78,0,.08,0,.15,0,.22-7.26,33.87-37.62,48.81-55.64,49.12-10.18.16-54.39-17.39-59.67-52h0v0c0-.17,0-.33-.07-.49C935.86,875.19,935.73,874.16,935.67,873.12Z" transform="translate(-390.64 -375.33)"/><g class="cls-10"><path class="cls-5" d="M936,869.81c2.3-9.72,17.88-15.41,34-15.64,15.37-.23,58.27-.59,71.68,1.68,10.24,1.73,11.25,9.44,10.55,18.64a9.3,9.3,0,0,1-.11,1.15c-.19,1.29-.43,2.54-.69,3.78,0,.08,0,.15,0,.22a62,62,0,0,1-27.62,39.78,61.79,61.79,0,0,0,13.53-27.51,1.41,1.41,0,0,1,.06-.22c.26-1.24.5-2.5.7-3.8,0-.39.08-.76.1-1.15.32-4.29.26-8.24-.92-11.43-1.36,6.67-10.3,11.68-20.92,11.43-11.36-.27-20.34-6.46-20-13.83a10,10,0,0,1,2.91-6.46c-16.28-.33-34.37-.15-43.26,0A62.62,62.62,0,0,0,936,869.81Z" transform="translate(-390.64 -375.33)"/></g><g class="cls-10"><path class="cls-5" d="M972.06,883.14a7.55,7.55,0,0,0,7.61,7.63,7.81,7.81,0,0,0,8.18-7.27,7.52,7.52,0,0,0-7.6-7.63A7.82,7.82,0,0,0,972.06,883.14Z" transform="translate(-390.64 -375.33)"/></g><path class="cls-4" d="M996.52,932.57l-.75,0c-13.31.21-58.3-19.65-63.73-55.3a1.49,1.49,0,0,1,0-.21l0-.09c0-.08,0-.18,0-.26-.15-1.09-.28-2.2-.35-3.33a15.48,15.48,0,0,1,4.6-11.95c6.38-6.69,19.2-11,33.77-11.13,13.42-.19,58.29-.65,72.46,1.75,15.37,2.58,14.31,16.64,13.85,22.64,0,.56-.08,1-.16,1.5-.18,1.27-.44,2.6-.71,3.91a2.61,2.61,0,0,0-.06.27C1047.49,917.12,1015.09,931.89,996.52,932.57ZM940.1,876.19c5.06,32.9,47.51,48.87,55.62,48.73h.58c17.26-.64,44.52-15.32,51.09-46l4,.5-4-.71c.25-1.16.48-2.34.65-3.55a6,6,0,0,0,.07-.71c.86-11.38-1.76-13.9-7.24-14.82-10.69-1.81-43.64-2-70.91-1.63-12,.21-23,3.6-27.78,8.56a8,8,0,0,0-2.51,6.26c.07.94.18,1.86.3,2.77l.06.43C940.09,876.07,940.09,876.13,940.1,876.19Z" transform="translate(-390.64 -375.33)"/></g></g></svg>